<svg width="24" height="24" viewBox="0 0 24 24" fill="none" xmlns="http://www.w3.org/2000/svg">
<g clip-path="url(#clip0_21_1277)">
<path d="M23.3068 9.77517C24.1341 10.4775 24.2354 11.7178 23.5328 12.5451C22.8303 13.3724 21.5902 13.4737 20.7629 12.7711C20.7609 12.7693 20.7589 12.7675 20.7567 12.7659L12.9565 6.10658C12.4049 5.63563 11.5927 5.63563 11.041 6.10658L3.24047 12.7659C3.13823 12.8534 3.02741 12.93 2.90923 12.9941C2.09308 13.442 1.07463 13.2554 0.470342 12.5471C0.468947 12.5451 0.466754 12.5435 0.465359 12.5415C-0.234398 11.715 -0.13355 10.4779 0.690772 9.77557L11.0422 0.958955C11.5933 0.489593 12.4037 0.489593 12.955 0.958955L16.5801 4.04638L19.9537 6.91934L23.3068 9.77517Z" fill="#033826"/>
<path d="M21.0863 12.9942L21.0634 13.0364V21.4106C21.0634 22.7685 19.9629 23.8692 18.6052 23.8694H5.39054C4.03268 23.8692 2.93192 22.7685 2.93172 21.4106V13.0364L2.9082 12.9942C3.02639 12.93 3.1372 12.8535 3.23945 12.766L11.04 6.10663C11.5917 5.63568 12.4039 5.63568 12.9555 6.10663L20.7557 12.766C20.7579 12.7676 20.7599 12.7694 20.7619 12.7712C20.8623 12.8561 20.9709 12.9308 21.0863 12.9942ZM12.1268 21.7245C16.1526 20.0938 17.5112 17.1555 17.0841 14.9553C16.7867 13.4799 15.7382 12.5216 14.379 12.5216C13.6284 12.5216 12.7999 12.8324 11.9973 13.4151C11.1819 12.8064 10.3666 12.4961 9.60283 12.4961C8.24417 12.4961 7.19563 13.4538 6.91083 14.9553C6.48332 17.1816 7.85573 20.1327 11.8681 21.7245C11.9508 21.7592 12.0441 21.7592 12.1268 21.7245Z" fill="#033826"/>
<path d="M19.9603 1.85668V6.91143L19.9537 6.91901L16.5801 4.04604L16.5918 4.03229V1.85668C16.5918 0.92653 17.3458 0.172363 18.276 0.172363C19.2061 0.172363 19.9603 0.92653 19.9603 1.85668Z" fill="#033826"/>
<path d="M17.086 14.9553C17.5131 17.1554 16.1544 20.0938 12.1287 21.7245C12.046 21.7592 11.9527 21.7592 11.87 21.7245C7.85759 20.1326 6.48519 17.1815 6.91269 14.9553C7.1975 13.4538 8.24604 12.4961 9.60469 12.4961C10.3684 12.4961 11.1838 12.8064 11.9991 13.4151C12.8017 12.8323 13.6302 12.5216 14.3808 12.5216C15.7401 12.5216 16.7886 13.4799 17.086 14.9553Z" fill="#033826"/>
</g>
<defs>
<clipPath id="clip0_21_1277">
<rect width="24" height="24" fill="white"/>
</clipPath>
</defs>
</svg>
