<svg width="24" height="24" viewBox="0 0 24 24" fill="none" xmlns="http://www.w3.org/2000/svg">
<path d="M24 6.03988C23.7118 9.50929 22.9677 12.8849 21.38 16.0777C20.091 18.6657 18.2885 20.8927 15.6371 22.5102C14.6153 23.1384 13.4992 23.626 12.3149 23.9636C12.1211 24.0152 11.9167 24.0105 11.7281 23.9589C8.37976 22.965 5.90127 21.0052 4.03062 18.375C2.2438 15.8667 1.23249 13.0959 0.608939 10.1985C0.263104 8.62787 0.0587464 7.0432 0.00110711 5.44446C-0.0146127 4.87247 0.132105 4.71307 0.760897 4.64274C2.69443 4.43177 4.57033 4.00981 6.35715 3.32062C8.17016 2.62205 9.8417 1.72657 11.2512 0.47008C11.356 0.376312 11.4504 0.277856 11.5499 0.184088C11.8067 -0.0550196 12.1735 -0.0643964 12.4302 0.174711C14.9821 2.52828 18.168 3.77539 21.6944 4.42239C22.2761 4.53022 22.8682 4.59117 23.4498 4.68025C23.8166 4.73651 23.9948 4.92405 23.9948 5.25692C24 5.51478 24 5.77733 24 6.03988Z" fill="#033826"/>
<path d="M16.0811 12.492H12.8491V15.804H11.1531V12.492H7.92106V10.956H11.1531V7.644H12.8491V10.956H16.0811V12.492Z" fill="white"/>
</svg>
