<svg width="11" height="28" viewBox="0 0 11 28" fill="none" xmlns="http://www.w3.org/2000/svg">
<path d="M2.83789 0.361328H7.42773C7.92832 0.361328 8.33402 0.767029 8.33398 1.26758V18.1035C8.33398 18.4824 8.46493 18.8585 8.72168 19.1514C9.4582 19.9913 9.9043 21.0911 9.9043 22.2959C9.90427 24.9538 7.73103 27.1044 5.06445 27.0674C2.49115 27.0315 0.391172 24.926 0.361328 22.3525C0.347214 21.1238 0.796893 20.0009 1.54688 19.1475C1.79744 18.8623 1.93161 18.4961 1.93164 18.1211V1.26758C1.93164 0.767001 2.33731 0.361328 2.83789 0.361328Z" fill="white" stroke="#C60000" stroke-width="0.721804"/>
<path d="M5.13281 3.06836C5.63326 3.06852 6.03906 3.47413 6.03906 3.97461V5.97461L5.13184 6.41992L4.22656 5.97461V3.97461C4.22656 3.47403 4.63224 3.06836 5.13281 3.06836Z" fill="white" stroke="#C60000" stroke-width="0.721804"/>
<path d="M6.03906 6.56055V19.2686C6.03918 19.7257 6.23549 20.1742 6.60254 20.4707C7.13537 20.9007 7.47545 21.5581 7.47559 22.2949C7.47559 23.5639 6.46715 24.5978 5.20801 24.6377C3.9118 24.6785 2.79936 23.6105 2.78906 22.3145C2.78328 21.5746 3.11987 20.9134 3.65137 20.4795C4.01498 20.1826 4.22557 19.738 4.22559 19.2686V6.56055H6.03906Z" fill="#C60000" stroke="#C60000" stroke-width="0.721804"/>
</svg>
