<svg width="24" height="24" viewBox="0 0 24 24" fill="none" xmlns="http://www.w3.org/2000/svg">
<path d="M9.79537 19.5924C7.85793 19.5922 5.96406 19.0176 4.35321 17.9411C2.74236 16.8646 1.48689 15.3346 0.745537 13.5446C0.00418906 11.7547 -0.189739 9.78504 0.188276 7.88485C0.56629 5.98465 1.49927 4.23921 2.86924 2.86924C4.23921 1.49927 5.98465 0.56629 7.88485 0.188276C9.78504 -0.189739 11.7547 0.00418906 13.5446 0.745537C15.3346 1.48689 16.8646 2.74236 17.9411 4.35321C19.0176 5.96406 19.5922 7.85793 19.5924 9.79537C19.5896 12.3929 18.5566 14.8832 16.7199 16.7199C14.8832 18.5566 12.3929 19.5896 9.79537 19.5924ZM9.79537 3.42864C8.53598 3.42881 7.30493 3.80242 6.25787 4.50223C5.21082 5.20204 4.39481 6.19663 3.91301 7.36021C3.43122 8.52379 3.30528 9.80412 3.55114 11.0393C3.79699 12.2744 4.40359 13.4089 5.29423 14.2993C6.18487 15.1897 7.31954 15.7961 8.55476 16.0416C9.78998 16.2871 11.0703 16.1609 12.2337 15.6788C13.3972 15.1967 14.3916 14.3804 15.0911 13.3331C15.7906 12.2859 16.1639 11.0548 16.1638 9.79537C16.1619 8.1071 15.4902 6.48855 14.2963 5.29493C13.1024 4.1013 11.4836 3.4301 9.79537 3.42864Z" fill="#C5D0CC" fill-opacity="0.97"/>
<path d="M22.2865 23.9998C22.0613 24.0001 21.8383 23.9558 21.6303 23.8696C21.4223 23.7834 21.2334 23.657 21.0745 23.4975L14.3009 16.724C14.1417 16.5649 14.0155 16.3759 13.9293 16.1679C13.8432 15.96 13.7988 15.7371 13.7988 15.512C13.7988 15.2869 13.8432 15.064 13.9293 14.856C14.0155 14.648 14.1417 14.4591 14.3009 14.2999C14.4601 14.1407 14.649 14.0145 14.857 13.9283C15.065 13.8422 15.2879 13.7979 15.513 13.7979C15.7381 13.7979 15.961 13.8422 16.1689 13.9283C16.3769 14.0145 16.5659 14.1407 16.725 14.2999L23.4985 21.0735C23.7382 21.3132 23.9014 21.6187 23.9675 21.9512C24.0336 22.2837 23.9997 22.6283 23.87 22.9415C23.7402 23.2547 23.5206 23.5224 23.2387 23.7108C22.9569 23.8992 22.6255 23.9997 22.2865 23.9998Z" fill="#C5D0CC" fill-opacity="0.97"/>
</svg>
