<svg width="22" height="22" viewBox="0 0 22 22" fill="none" xmlns="http://www.w3.org/2000/svg">
<path d="M22 5.53656C21.7358 8.71685 21.0538 11.8112 19.5984 14.7379C18.4168 17.1102 16.7644 19.1516 14.334 20.6343C13.3973 21.2102 12.3742 21.6572 11.2887 21.9666C11.111 22.0139 10.9237 22.0096 10.7507 21.9623C7.68145 21.0512 5.4095 19.2548 3.69473 16.8438C2.05682 14.5445 1.12978 12.0046 0.558194 9.34861C0.241178 7.90888 0.0538508 6.45626 0.00101485 4.99075C-0.013395 4.46643 0.121097 4.32031 0.697489 4.25585C2.4699 4.06245 4.18947 3.67566 5.82738 3.0439C7.48932 2.40355 9.02156 1.58269 10.3136 0.430906C10.4097 0.344953 10.4962 0.254701 10.5874 0.168747C10.8228 -0.0504346 11.159 -0.05903 11.3944 0.160152C13.7336 2.31759 16.654 3.46078 19.8866 4.05386C20.4197 4.1527 20.9625 4.20857 21.4957 4.29023C21.8319 4.3418 21.9952 4.51371 21.9952 4.81885C22 5.05522 22 5.29589 22 5.53656Z" fill="white"/>
<path d="M14.741 11.3678H11.7783V14.4038H10.2236V11.3678H7.26097V9.95983H10.2236V6.92383H11.7783V9.95983H14.741V11.3678Z" fill="#E74B61"/>
</svg>
