<svg width="19" height="18" viewBox="0 0 19 18" fill="none" xmlns="http://www.w3.org/2000/svg">
<path d="M8.38488 0.691212C8.68423 -0.230099 9.98764 -0.2301 10.287 0.691211L11.8056 5.36497C11.9395 5.777 12.3234 6.05596 12.7566 6.05596H17.6709C18.6397 6.05596 19.0424 7.29557 18.2587 7.86497L14.283 10.7535C13.9325 11.0082 13.7858 11.4595 13.9197 11.8716L15.4383 16.5453C15.7377 17.4666 14.6832 18.2327 13.8995 17.6633L9.92372 14.7748C9.57324 14.5202 9.09864 14.5202 8.74815 14.7748L4.77241 17.6633C3.9887 18.2327 2.93422 17.4666 3.23357 16.5453L4.75217 11.8716C4.88604 11.4595 4.73938 11.0082 4.3889 10.7535L0.413159 7.86497C-0.370555 7.29557 0.0322201 6.05596 1.00094 6.05596H5.91523C6.34845 6.05596 6.73241 5.777 6.86628 5.36497L8.38488 0.691212Z" fill="white"/>
</svg>
