<svg width="24" height="24" viewBox="0 0 24 24" fill="none" xmlns="http://www.w3.org/2000/svg">
<path d="M23.4742 3.33439C23.4552 3.22387 23.3855 3.1241 23.2801 3.05671C23.1746 2.98932 23.042 2.95973 22.911 2.97437C15.9452 3.78835 6.37445 8.52833 9.34853 18.9742C6.7015 20.8553 3.64331 22.2794 0.347206 23.1659C0.220478 23.2013 0.115443 23.2776 0.0549575 23.3781C-0.0055285 23.4786 -0.0165706 23.5953 0.0242345 23.7026C0.0650396 23.81 0.154389 23.8994 0.27284 23.9514C0.391291 24.0034 0.529257 24.0137 0.656715 23.9802C1.75031 23.6849 2.82125 23.3328 3.86344 22.9259C6.51882 21.8606 8.98078 20.4809 11.175 18.8284C13.4888 17.0226 15.4013 14.8815 16.8222 12.5065C16.917 12.3521 16.9632 12.2279 17.0556 12.0865C17.1286 12.002 17.2354 11.9427 17.3562 11.9195C17.477 11.8964 17.6036 11.9111 17.7125 11.9608C17.8215 12.0105 17.9055 12.0918 17.9489 12.1898C17.9923 12.2878 17.9922 12.3957 17.9486 12.4937C16.6076 14.8966 14.7651 17.0758 12.5094 18.927C11.1124 20.0171 11.4122 19.714 13.1336 19.81C22.6389 19.6646 25.2656 12.7922 23.4742 3.33439Z" fill="#033826"/>
<path d="M7.88171 16.579C7.52958 13.5207 8.34162 10.4547 10.3071 8.12691C11.2911 6.95115 12.5061 5.92629 13.8994 5.09669C11.7988 3.27083 8.70876 1.56928 4.69021 0.0391623C4.57028 -0.00759927 4.4334 -0.0126881 4.30907 0.0249924C4.18474 0.0626729 4.08291 0.140106 4.02553 0.240606C3.96464 0.347757 -1.89067 10.7028 7.88171 16.579Z" fill="#033826"/>
<path d="M3.56384 23.0439C2.7054 23.3682 1.82819 23.6557 0.935547 23.9054C0.988844 23.8656 1.05091 23.835 1.11821 23.8154C1.9757 23.584 2.78753 23.3225 3.56384 23.0439Z" fill="#033826"/>
</svg>
