<svg width="24" height="24" viewBox="0 0 24 24" fill="none" xmlns="http://www.w3.org/2000/svg">
<g clip-path="url(#clip0_21_1203)">
<path d="M20.444 7.50875C20.235 7.29978 19.987 7.13401 19.714 7.02092C19.441 6.90782 19.1484 6.84961 18.8528 6.84961C18.5573 6.84961 18.2647 6.90782 17.9917 7.02092C17.7187 7.13401 17.4707 7.29978 17.2617 7.50875C17.5879 7.83481 17.8466 8.22194 18.0231 8.64803C18.1996 9.07412 18.2904 9.53081 18.2903 9.992V10.2249H19.4153V9.992C19.4154 9.0606 19.7854 8.16735 20.444 7.50875Z" fill="#828282"/>
<path d="M3 5.625H12V7.5H3V5.625Z" fill="#CD7E5A"/>
<path d="M10.5 6.75H11.625C11.8239 6.75 12.0147 6.82902 12.1553 6.96967C12.296 7.11032 12.375 7.30109 12.375 7.5C12.375 7.69891 12.296 7.88968 12.1553 8.03033C12.0147 8.17098 11.8239 8.25 11.625 8.25H10.5V6.75Z" fill="#FAC3A0"/>
<path d="M4.5 8.25H3.375C3.17609 8.25 2.98532 8.17098 2.84467 8.03033C2.70402 7.88968 2.625 7.69891 2.625 7.5C2.625 7.30109 2.70402 7.11032 2.84467 6.96967C2.98532 6.82902 3.17609 6.75 3.375 6.75H4.5V8.25Z" fill="#FFD2BA"/>
<path d="M14.625 23.625H0.375V16.2836C0.374998 15.7016 0.568426 15.1361 0.924871 14.676C1.28132 14.2159 1.78057 13.8873 2.34413 13.7419L6.1875 12.75H8.8125L12.6559 13.7419C13.2194 13.8873 13.7187 14.2159 14.0751 14.676C14.4316 15.1361 14.625 15.7016 14.625 16.2836V23.625Z" fill="#6DA829"/>
<path d="M12.6559 13.7419L8.8125 12.75L3.72337 14.1139C3.08553 14.2848 2.52191 14.6615 2.11992 15.1853C1.71793 15.7092 1.50002 16.3511 1.5 17.0115V23.625H14.625V16.2836C14.625 15.7016 14.4316 15.1361 14.0751 14.676C13.7187 14.2159 13.2194 13.8873 12.6559 13.7419Z" fill="#A3E555"/>
<path d="M6.1875 11.625H8.8125V12.9375C8.8125 13.2856 8.67422 13.6194 8.42808 13.8656C8.18194 14.1117 7.8481 14.25 7.5 14.25C7.1519 14.25 6.81806 14.1117 6.57192 13.8656C6.32578 13.6194 6.1875 13.2856 6.1875 12.9375V11.625Z" fill="#FAC3A0"/>
<path d="M4.125 5.625V7.68225C4.125 8.54902 4.33899 9.40238 4.74798 10.1666C5.15697 10.9308 5.74831 11.5822 6.4695 12.063C6.77472 12.2663 7.13325 12.3749 7.5 12.375C7.86675 12.3749 8.22528 12.2663 8.5305 12.063C9.25169 11.5822 9.84303 10.9308 10.252 10.1666C10.661 9.40238 10.875 8.54902 10.875 7.68225V5.625H4.125Z" fill="#FFE0CD"/>
<path d="M7.2195 12.063C7.41864 12.194 7.64122 12.2853 7.875 12.3319C8.10878 12.2853 8.33136 12.194 8.5305 12.063C9.25169 11.5822 9.84303 10.9308 10.252 10.1666C10.661 9.40238 10.875 8.54902 10.875 7.68225V5.625H4.875V7.68225C4.875 8.54902 5.08899 9.40238 5.49798 10.1666C5.90697 10.9308 6.49831 11.5822 7.2195 12.063Z" fill="#FFD2BA"/>
<path d="M13.875 5.625H1.125L3.375 4.125H11.625L13.875 5.625Z" fill="#FFF56E"/>
<path d="M13.875 5.625H2.25L4.125 4.125H11.625L13.875 5.625Z" fill="#FFF56E"/>
<path d="M9.95288 0.375H8.71537C8.56759 0.374982 8.42124 0.404084 8.28471 0.460642C8.14817 0.517201 8.02411 0.600107 7.91962 0.704625L7.5 1.125L7.07962 0.704625C6.97514 0.600107 6.85108 0.517201 6.71454 0.460642C6.57801 0.404084 6.43166 0.374982 6.28387 0.375H5.04637C4.78633 0.37507 4.53434 0.465225 4.33327 0.630129C4.1322 0.795033 3.99447 1.0245 3.9435 1.2795L3.375 4.125H11.625L11.0557 1.2795C11.0048 1.0245 10.867 0.795033 10.666 0.630129C10.4649 0.465225 10.2129 0.37507 9.95288 0.375Z" fill="#FFF56E"/>
<path d="M11.625 4.125L11.2057 2.0295C11.1548 1.7745 11.017 1.54503 10.816 1.38013C10.6149 1.21523 10.3629 1.12507 10.1029 1.125H8.71537C8.56759 1.12498 8.42124 1.15408 8.28471 1.21064C8.14817 1.2672 8.02411 1.35011 7.91962 1.45463L7.5 1.875L7.07962 1.45463C6.97514 1.35011 6.85108 1.2672 6.71454 1.21064C6.57801 1.15408 6.43166 1.12498 6.28387 1.125H5.34C5.16655 1.12493 4.99844 1.18498 4.86429 1.29493C4.73014 1.40487 4.63825 1.55792 4.60425 1.728L4.125 4.125H11.625Z" fill="#FFF56E"/>
<path d="M11.625 17.25H3.375C3.37497 18.339 2.98538 19.3921 2.27663 20.2189L2.25 20.25V23.625H12.75V20.25L12.7234 20.2189C12.0146 19.3921 11.625 18.339 11.625 17.25Z" fill="#F4FAFF"/>
<path d="M4.5 13.1855L3.375 13.4758V17.2502H4.5V13.1855Z" fill="#F4FAFF"/>
<path d="M11.625 13.4758L10.5 13.1855V17.2502H11.625V13.4758Z" fill="#EAF0F5"/>
<path d="M4.5 13.9058L3.72337 14.1139C3.60492 14.1465 3.48857 14.1863 3.375 14.2331V17.25H4.5V13.9058Z" fill="#EAF0F5"/>
<path d="M18.2891 10.2246V23.0624C18.2891 23.2115 18.3483 23.3546 18.4538 23.4601C18.5593 23.5656 18.7024 23.6249 18.8516 23.6249C19.0007 23.6249 19.1438 23.5656 19.2493 23.4601C19.3548 23.3546 19.4141 23.2115 19.4141 23.0624V10.2246H18.2891Z" fill="#828282"/>
<path d="M19.191 23.5086C19.2605 23.4567 19.317 23.3894 19.3561 23.312C19.3951 23.2345 19.4156 23.1491 19.416 23.0624V10.2246H18.7598V22.7811C18.7605 22.9298 18.8008 23.0755 18.8766 23.2034C18.9524 23.3313 19.0609 23.4366 19.191 23.5086Z" fill="#828282"/>
<path d="M9.375 7.5C9.58211 7.5 9.75 7.33211 9.75 7.125C9.75 6.91789 9.58211 6.75 9.375 6.75C9.16789 6.75 9 6.91789 9 7.125C9 7.33211 9.16789 7.5 9.375 7.5Z" fill="black"/>
<path d="M5.625 7.5C5.83211 7.5 6 7.33211 6 7.125C6 6.91789 5.83211 6.75 5.625 6.75C5.41789 6.75 5.25 6.91789 5.25 7.125C5.25 7.33211 5.41789 7.5 5.625 7.5Z" fill="black"/>
<path d="M8.4492 10.3874C8.50046 10.3344 8.52884 10.2633 8.52823 10.1896C8.52763 10.1158 8.49808 10.0453 8.44596 9.99311C8.39384 9.94094 8.32331 9.91133 8.24957 9.91066C8.17583 9.90998 8.10477 9.9383 8.0517 9.9895C7.90314 10.1312 7.70574 10.2102 7.50045 10.2102C7.29516 10.2102 7.09776 10.1312 6.9492 9.9895C6.89613 9.9383 6.82507 9.90998 6.75133 9.91066C6.67759 9.91133 6.60706 9.94094 6.55494 9.99311C6.50282 10.0453 6.47327 10.1158 6.47267 10.1896C6.47206 10.2633 6.50044 10.3344 6.5517 10.3874C6.80333 10.639 7.1446 10.7804 7.50045 10.7804C7.8563 10.7804 8.19757 10.639 8.4492 10.3874Z" fill="black"/>
<path d="M7.3014 9.57363C7.32749 9.59976 7.35847 9.62048 7.39257 9.63462C7.42668 9.64876 7.46323 9.65604 7.50015 9.65604C7.53707 9.65604 7.57363 9.64876 7.60773 9.63462C7.64184 9.62048 7.67282 9.59976 7.6989 9.57363C7.72503 9.54755 7.74575 9.51657 7.75989 9.48246C7.77403 9.44836 7.78131 9.4118 7.78131 9.37488C7.78131 9.33796 7.77403 9.30141 7.75989 9.2673C7.74575 9.2332 7.72503 9.20222 7.6989 9.17613L7.4469 8.92376L7.76678 7.96376C7.78922 7.8933 7.783 7.81683 7.74948 7.75092C7.71596 7.68501 7.65783 7.63495 7.58767 7.61158C7.51751 7.58821 7.44098 7.59341 7.37462 7.62606C7.30827 7.6587 7.25745 7.71617 7.23315 7.78601L6.85815 8.91101C6.84167 8.96053 6.83928 9.01366 6.85127 9.06445C6.86326 9.11525 6.88914 9.16171 6.92603 9.19863L7.3014 9.57363Z" fill="black"/>
<path d="M12.7264 13.4696L9.09375 12.5321V11.9948C10.1655 11.1287 10.8751 9.89342 11.0831 8.53125H11.625C11.8367 8.53184 12.0434 8.46698 12.2168 8.34556C12.3902 8.22415 12.5218 8.0521 12.5936 7.85299C12.6655 7.65387 12.674 7.43742 12.6181 7.23326C12.5622 7.0291 12.4445 6.84721 12.2812 6.7125V5.90625H13.875C13.9354 5.90624 13.9941 5.88682 14.0426 5.85085C14.0911 5.81488 14.1267 5.76427 14.1442 5.7065C14.1616 5.64873 14.1601 5.58687 14.1397 5.53005C14.1193 5.47324 14.0812 5.42449 14.031 5.391L11.8781 3.9555L11.3317 1.22438C11.2674 0.905902 11.095 0.619435 10.8437 0.413418C10.5925 0.207402 10.2778 0.0944808 9.95288 0.09375H8.71537C8.34257 0.0947569 7.98525 0.243019 7.72125 0.50625L7.5 0.727125L7.27838 0.505875C7.01431 0.242782 6.65701 0.0946572 6.28425 0.09375H5.04675C4.7219 0.094567 4.4073 0.207528 4.15612 0.413537C3.90495 0.619546 3.73261 0.905965 3.66825 1.22438L3.12187 3.9555L0.969 5.391C0.918782 5.42449 0.880668 5.47324 0.860292 5.53005C0.839916 5.58687 0.838357 5.64873 0.855848 5.7065C0.873338 5.76427 0.908949 5.81488 0.957418 5.85085C1.00589 5.88682 1.06464 5.90624 1.125 5.90625H2.71875V6.7125C2.55547 6.84721 2.43781 7.0291 2.38189 7.23326C2.32597 7.43742 2.33451 7.65387 2.40636 7.85299C2.4782 8.0521 2.60984 8.22415 2.78323 8.34556C2.95663 8.46698 3.16332 8.53184 3.375 8.53125H3.91687C4.12494 9.89342 4.83446 11.1287 5.90625 11.9948V12.5321L2.27363 13.4696C1.64996 13.6305 1.09743 13.9941 0.702852 14.5032C0.308277 15.0123 0.094021 15.638 0.09375 16.2821V23.625C0.09375 23.6996 0.123382 23.7711 0.176126 23.8239C0.228871 23.8766 0.300408 23.9062 0.375 23.9062H14.625C14.6996 23.9062 14.7711 23.8766 14.8239 23.8239C14.8766 23.7711 14.9062 23.6996 14.9062 23.625V16.2836C14.9063 15.6393 14.6922 15.0132 14.2976 14.5038C13.903 13.9944 13.3503 13.6306 12.7264 13.4696ZM10.7812 13.5484L11.3438 13.6939V16.9688H10.7812V13.5484ZM11.625 7.96875H11.1401C11.145 7.87313 11.1562 7.77863 11.1562 7.68225V7.03125H11.625C11.7493 7.03125 11.8685 7.08064 11.9565 7.16854C12.0444 7.25645 12.0938 7.37568 12.0938 7.5C12.0938 7.62432 12.0444 7.74355 11.9565 7.83146C11.8685 7.91936 11.7493 7.96875 11.625 7.96875ZM11.1562 6.46875V5.90625H11.7188V6.47812C11.6873 6.4755 11.6573 6.46875 11.625 6.46875H11.1562ZM4.21988 1.33463C4.25856 1.14359 4.36201 0.971755 4.51273 0.848159C4.66345 0.724563 4.85221 0.656776 5.04712 0.65625H6.28463C6.50829 0.656821 6.72269 0.745627 6.88125 0.903375L7.30125 1.32375C7.32734 1.34987 7.35832 1.3706 7.39242 1.38474C7.42652 1.39888 7.46308 1.40616 7.5 1.40616C7.53692 1.40616 7.57348 1.39888 7.60758 1.38474C7.64168 1.3706 7.67266 1.34987 7.69875 1.32375L8.11912 0.903375C8.27768 0.745627 8.49209 0.656821 8.71575 0.65625H9.95325C10.1482 0.656776 10.3369 0.724563 10.4876 0.848159C10.6384 0.971755 10.7418 1.14359 10.7805 1.33463L11.2823 3.84375H3.71812L4.21988 1.33463ZM3.375 7.96875C3.25068 7.96875 3.13145 7.91936 3.04354 7.83146C2.95564 7.74355 2.90625 7.62432 2.90625 7.5C2.90625 7.37568 2.95564 7.25645 3.04354 7.16854C3.13145 7.08064 3.25068 7.03125 3.375 7.03125H3.84375V7.68225C3.84375 7.77863 3.855 7.87313 3.85988 7.96875H3.375ZM3.28125 6.47812V5.90625H3.84375V6.46875H3.375C3.34275 6.46875 3.31275 6.4755 3.28125 6.47812ZM2.05425 5.34375L3.46012 4.40625H11.5399L12.9457 5.34375H2.05425ZM4.40625 7.68225V5.90625H10.5938V7.68225C10.5947 8.50289 10.3925 9.31101 10.0053 10.0345C9.61808 10.7581 9.05783 11.3746 8.3745 11.829C8.11437 11.9986 7.81053 12.0889 7.5 12.0889C7.18947 12.0889 6.88563 11.9986 6.6255 11.829C5.94217 11.3746 5.38192 10.7581 4.9947 10.0345C4.60748 9.31101 4.40532 8.50289 4.40625 7.68225ZM8.53125 12.3848V12.9375C8.53125 13.211 8.4226 13.4733 8.2292 13.6667C8.03581 13.8601 7.7735 13.9688 7.5 13.9688C7.2265 13.9688 6.96419 13.8601 6.7708 13.6667C6.5774 13.4733 6.46875 13.211 6.46875 12.9375V12.3848C6.78332 12.5627 7.13858 12.6562 7.5 12.6562C7.86142 12.6562 8.21668 12.5627 8.53125 12.3848ZM4.78125 13.4032L5.9235 13.1085C5.96348 13.4988 6.14682 13.8604 6.43804 14.1233C6.72926 14.3862 7.10766 14.5318 7.5 14.5318C7.89234 14.5318 8.27074 14.3862 8.56196 14.1233C8.85318 13.8604 9.03652 13.4988 9.0765 13.1085L10.2188 13.4032V16.9688H4.78125V13.4032ZM3.65625 13.6939L4.21875 13.5484V16.9688H3.65625V13.6939ZM2.03625 20.0689C1.99289 20.1193 1.96895 20.1835 1.96875 20.25V23.3438H0.65625V16.2836C0.656158 15.764 0.828807 15.259 1.14705 14.8482C1.46528 14.4373 1.91105 14.1439 2.41425 14.0141L3.09375 13.8375V17.25C3.09333 18.272 2.72757 19.2602 2.0625 20.0363L2.03625 20.0689ZM12.4688 23.3438H2.53125V20.3531C3.19586 19.5562 3.5874 18.5671 3.64838 17.5312H11.3516C11.4125 18.5672 11.8041 19.5562 12.4688 20.3531V23.3438ZM14.3438 23.3438H13.0312V20.25C13.0314 20.183 13.0075 20.1182 12.9637 20.0674L12.9368 20.0355C12.272 19.2597 11.9065 18.2717 11.9062 17.25V13.8375L12.5858 14.0126C13.0889 14.1424 13.5347 14.4358 13.853 14.8467C14.1712 15.2575 14.3438 15.7625 14.3438 16.2821V23.3438Z" fill="black"/>
<path d="M23.8884 4.23081L23.6319 3.52506C23.6064 3.45501 23.5541 3.39797 23.4865 3.36646C23.4189 3.33496 23.3416 3.33158 23.2716 3.35706C23.2015 3.3826 23.1445 3.4349 23.113 3.50247C23.0814 3.57005 23.0781 3.64737 23.1036 3.71744L23.2986 4.25406L20.4302 7.12206C20.4047 7.10144 20.3754 7.08681 20.3488 7.06731L22.4698 3.39419C22.4903 3.35859 22.5028 3.31892 22.5064 3.27798C22.51 3.23703 22.5045 3.1958 22.4904 3.15719L22.2339 2.45256C22.2213 2.41785 22.202 2.38596 22.1771 2.35872C22.1521 2.33148 22.1221 2.30943 22.0886 2.29382C22.0551 2.27822 22.0189 2.26937 21.982 2.26778C21.9451 2.26619 21.9082 2.27189 21.8736 2.28456C21.8035 2.3101 21.7465 2.3624 21.715 2.42997C21.6835 2.49755 21.6801 2.57487 21.7056 2.64494L21.9174 3.22619L19.8617 6.78869C19.8317 6.77556 19.8028 6.76056 19.7728 6.74856L20.8697 2.65244C20.8845 2.59674 20.8819 2.53785 20.8622 2.48369L20.6061 1.77906C20.5934 1.74435 20.5741 1.71245 20.5492 1.6852C20.5243 1.65795 20.4942 1.63587 20.4607 1.62024C20.4273 1.6046 20.3911 1.59571 20.3542 1.59408C20.3173 1.59244 20.2804 1.59808 20.2457 1.61069C20.211 1.6233 20.1791 1.64262 20.1518 1.66755C20.1246 1.69248 20.1025 1.72254 20.0869 1.756C20.0712 1.78947 20.0623 1.82568 20.0607 1.86258C20.0591 1.89948 20.0647 1.93635 20.0773 1.97106L20.3023 2.59281L19.2294 6.60006C19.1976 6.59519 19.1646 6.59556 19.1323 6.59181V1.97481C19.1324 1.9379 19.1251 1.90133 19.111 1.86721C19.0969 1.83309 19.0763 1.80208 19.0502 1.77596C19.0241 1.74984 18.9931 1.72912 18.959 1.71498C18.9249 1.70084 18.8883 1.69356 18.8514 1.69356C18.7768 1.69356 18.7053 1.7232 18.6526 1.77594C18.5998 1.82868 18.5702 1.90022 18.5702 1.97481V6.59219C18.5379 6.59594 18.5049 6.59556 18.4731 6.60044L17.3991 2.59281L17.6241 1.97106C17.6494 1.90094 17.6459 1.82362 17.6144 1.75607C17.5828 1.68851 17.5257 1.63623 17.4557 1.61069C17.3856 1.5852 17.3083 1.58859 17.2407 1.62009C17.1731 1.65159 17.1208 1.70864 17.0953 1.77869L16.8384 2.48369C16.8187 2.53798 16.8161 2.59699 16.8309 2.65281L17.9286 6.74781C17.8982 6.75981 17.8697 6.77481 17.8397 6.78794L15.7866 3.22694L15.9981 2.64531C16.0107 2.61064 16.0163 2.57383 16.0147 2.53698C16.0131 2.50012 16.0042 2.46394 15.9886 2.43051C15.973 2.39708 15.951 2.36705 15.9238 2.34214C15.8966 2.31723 15.8647 2.29792 15.8301 2.28531C15.7953 2.27264 15.7585 2.26693 15.7215 2.26851C15.6846 2.2701 15.6484 2.27894 15.6149 2.29455C15.5814 2.31015 15.5513 2.3322 15.5263 2.35944C15.5013 2.38669 15.4819 2.41858 15.4693 2.45331L15.2132 3.15831C15.1991 3.19686 15.1936 3.23803 15.1972 3.27892C15.2008 3.3198 15.2133 3.35941 15.2338 3.39494L17.3544 7.06806C17.3282 7.08756 17.2986 7.10219 17.2731 7.12281L14.4047 4.25481L14.6001 3.71819C14.6127 3.68342 14.6184 3.6465 14.6169 3.60952C14.6153 3.57255 14.6064 3.53625 14.5908 3.5027C14.5752 3.46915 14.5531 3.439 14.5258 3.41398C14.4986 3.38896 14.4666 3.36956 14.4319 3.35688C14.3971 3.3442 14.3602 3.33849 14.3232 3.34008C14.2862 3.34167 14.2499 3.35052 14.2164 3.36614C14.1828 3.38176 14.1527 3.40383 14.1277 3.4311C14.1026 3.45837 14.0832 3.4903 14.0706 3.52506L13.8137 4.22969C13.7955 4.28004 13.792 4.33453 13.8036 4.38679C13.8152 4.43905 13.8415 4.48692 13.8793 4.52481L17.0616 7.70781C17.3625 8.00706 17.601 8.36303 17.7634 8.7551C17.9258 9.14717 18.0088 9.56756 18.0077 9.99194V23.0626C18.0077 23.2863 18.0966 23.501 18.2548 23.6592C18.413 23.8174 18.6277 23.9063 18.8514 23.9063C19.0752 23.9063 19.2898 23.8174 19.448 23.6592C19.6063 23.501 19.6952 23.2863 19.6952 23.0626V9.99194C19.694 9.56756 19.777 9.14717 19.9394 8.7551C20.1018 8.36303 20.3404 8.00706 20.6413 7.70781L23.8232 4.52556C23.861 4.48774 23.8872 4.43991 23.8988 4.3877C23.9103 4.33549 23.9067 4.28106 23.8884 4.23081ZM19.1323 23.0626C19.1323 23.1372 19.1027 23.2087 19.0499 23.2614C18.9972 23.3142 18.9256 23.3438 18.8511 23.3438C18.7765 23.3438 18.7049 23.3142 18.6522 23.2614C18.5994 23.2087 18.5698 23.1372 18.5698 23.0626V10.5061H19.1323V23.0626ZM19.1349 9.94356H18.5676C18.5586 9.06057 18.2394 8.20886 17.6657 7.53756C18.0047 7.27411 18.4217 7.13108 18.8511 7.13108C19.2804 7.13108 19.6975 7.27411 20.0364 7.53756C19.4628 8.20886 19.1437 9.0606 19.1349 9.94356Z" fill="black"/>
</g>
<defs>
<clipPath id="clip0_21_1203">
<rect width="24" height="24" fill="white"/>
</clipPath>
</defs>
</svg>
